<?xml version="1.0" encoding="utf-8"?>
<!-- Svg Vector Icons : http://www.onlinewebfonts.com/icon -->
<!DOCTYPE svg PUBLIC "-//W3C//DTD SVG 1.1//EN" "http://www.w3.org/Graphics/SVG/1.1/DTD/svg11.dtd">
<svg version="1.1" xmlns="http://www.w3.org/2000/svg" xmlns:xlink="http://www.w3.org/1999/xlink" x="0px" y="0px" viewBox="0 0 1000 1000" enable-background="new 0 0 1000 1000" xml:space="preserve">
<metadata> Svg Vector Icons : http://www.onlinewebfonts.com/icon </metadata>
<g><path d="M959.4,775.6H775.6v183.8c0,16.9-13.7,30.7-30.6,30.7c-16.9,0-30.7-13.7-30.7-30.7V775.6H530.6c-16.9,0-30.6-13.7-30.6-30.6c0-16.9,13.7-30.6,30.6-30.6h183.8V530.6c0-16.9,13.7-30.7,30.7-30.7c16.9,0,30.6,13.7,30.6,30.7v183.8h183.8c16.9,0,30.6,13.7,30.6,30.6C990,761.9,976.3,775.6,959.4,775.6 M806.2,281.2c0-124.2-75.9-210-210-210h-315c-134.1,0-210,80.8-210,210v315c0,124.2,82.5,210,210,210h111.5v61.2H255c-135.3,0-245-109.7-245-245V255C10,119.7,119.7,10,255,10h367.5c135.3,0,245,109.7,245,245v137.8h-61.3L806.2,281.2L806.2,281.2z"/></g>
</svg>