<?xml version="1.0" encoding="UTF-8"?>
<svg xmlns="http://www.w3.org/2000/svg" xmlns:xlink="http://www.w3.org/1999/xlink" viewBox="0 0 26 26" version="1.1" width="26px" height="26px">
<g id="surface1">
<path style=" " d="M 17.84375 0.1875 L 16.3125 0.8125 L 16.75 2.6875 C 16.375 2.960938 16.035156 3.304688 15.75 3.6875 L 13.84375 3.25 L 13.21875 4.75 L 14.875 5.78125 C 14.800781 6.25 14.777344 6.722656 14.84375 7.1875 L 13.21875 8.21875 L 13.8125 9.71875 L 15.71875 9.3125 C 15.992188 9.683594 16.335938 9.996094 16.71875 10.28125 L 16.25 12.1875 L 17.75 12.8125 L 18.8125 11.15625 C 19.28125 11.226563 19.761719 11.226563 20.21875 11.15625 L 21.25 12.8125 L 22.75 12.21875 L 22.3125 10.3125 C 22.683594 10.039063 23.03125 9.691406 23.3125 9.3125 L 25.21875 9.75 L 25.84375 8.25 L 24.1875 7.21875 C 24.257813 6.75 24.253906 6.300781 24.1875 5.84375 L 25.84375 4.78125 L 25.21875 3.28125 L 23.3125 3.71875 C 23.042969 3.34375 22.722656 3.003906 22.34375 2.71875 L 22.78125 0.84375 L 21.28125 0.21875 L 20.25 1.84375 C 19.78125 1.769531 19.304688 1.777344 18.84375 1.84375 Z M 19.53125 4.25 C 19.824219 4.25 20.117188 4.316406 20.40625 4.4375 C 21.558594 4.921875 22.105469 6.222656 21.625 7.375 C 21.144531 8.527344 19.8125 9.074219 18.65625 8.59375 C 17.503906 8.113281 16.957031 6.78125 17.4375 5.625 C 17.800781 4.761719 18.648438 4.253906 19.53125 4.25 Z M 7.40625 9.0625 L 7 11.5625 C 6.394531 11.710938 5.832031 11.941406 5.3125 12.25 L 3.25 10.78125 L 1.75 12.28125 L 3.1875 14.34375 C 2.875 14.863281 2.652344 15.457031 2.5 16.0625 L 0 16.46875 L 0 18.59375 L 2.5 19.03125 C 2.648438 19.636719 2.871094 20.199219 3.1875 20.71875 L 1.71875 22.78125 L 3.21875 24.28125 L 5.3125 22.84375 C 5.832031 23.15625 6.398438 23.382813 7 23.53125 L 7.40625 26.03125 L 9.53125 26.03125 L 9.96875 23.53125 C 10.570313 23.378906 11.140625 23.125 11.65625 22.8125 L 13.75 24.28125 L 15.25 22.78125 L 13.75 20.71875 C 14.058594 20.203125 14.320313 19.632813 14.46875 19.03125 L 16.96875 18.59375 L 16.96875 16.46875 L 14.46875 16.0625 C 14.320313 15.464844 14.058594 14.890625 13.75 14.375 L 15.25 12.28125 L 13.71875 10.78125 L 11.65625 12.28125 C 11.136719 11.96875 10.570313 11.710938 9.96875 11.5625 L 9.53125 9.0625 Z M 8.5 14.59375 C 10.136719 14.59375 11.4375 15.894531 11.4375 17.53125 C 11.4375 19.167969 10.136719 20.5 8.5 20.5 C 6.863281 20.5 5.53125 19.167969 5.53125 17.53125 C 5.53125 15.894531 6.863281 14.59375 8.5 14.59375 Z "/>
</g>
</svg>
