<?xml version="1.0" encoding="iso-8859-1"?>
<!-- Generator: Adobe Illustrator 19.0.0, SVG Export Plug-In . SVG Version: 6.00 Build 0)  -->
<svg version="1.1" id="Capa_1" xmlns="http://www.w3.org/2000/svg" xmlns:xlink="http://www.w3.org/1999/xlink" x="0px" y="0px"
	 viewBox="0 0 361.571 361.571" style="enable-background:new 0 0 361.571 361.571;" xml:space="preserve">
<g>
	<g>
		<g>
			<path d="M172.725,231.491c-2.459-2.542-5.275-4.711-8.36-6.44c3.142-2.619,5.843-5.725,8-9.2c1.992-3.418,2.989-7.325,2.88-11.28
				c0.023-3.224-0.645-6.416-1.96-9.36c-1.356-2.937-3.352-5.533-5.84-7.6c-2.697-2.259-5.808-3.971-9.16-5.04
				c-3.76-1.21-7.691-1.804-11.64-1.76c-4.499-0.051-8.974,0.652-13.24,2.08c-3.609,1.208-6.96,3.08-9.88,5.52
				c-2.448,2.01-4.508,4.45-6.08,7.2c-1.293,2.185-2.009,4.662-2.08,7.2c-0.106,2.12,0.694,4.185,2.2,5.68
				c1.256,1.338,3.005,2.104,4.84,2.12c1.377,0.039,2.744-0.235,4-0.8c1.024-0.408,1.863-1.176,2.36-2.16
				c0.76-1.68,1.6-3.52,2.48-5.44c0.756-1.689,1.724-3.275,2.88-4.72c1.078-1.291,2.45-2.306,4-2.96
				c2.103-0.811,4.347-1.192,6.6-1.12c3.541-0.163,6.981,1.207,9.44,3.76c2.311,2.307,3.582,5.456,3.52,8.72
				c0.233,3.897-1.382,7.676-4.36,10.2c-2.948,2.387-6.648,3.648-10.44,3.56l-2.4,0.08c-2.497-0.186-4.983,0.492-7.04,1.92
				c-1.56,1.217-2.451,3.102-2.4,5.08c-0.118,1.886,0.599,3.729,1.96,5.04c1.57,1.289,3.573,1.933,5.6,1.8
				c0.56,0,1.8,0.04,3.56-0.24c1.76-0.28,3.12-0.28,4-0.28c4.346-0.259,8.6,1.323,11.72,4.36c2.857,3.32,4.294,7.63,4,12
				c0.211,3.242-0.51,6.476-2.08,9.32c-1.514,2.506-3.668,4.563-6.24,5.96c-2.458,1.323-5.208,2.01-8,2
				c-4.159,0.247-8.21-1.382-11.04-4.44c-3.228-4.069-5.719-8.672-7.36-13.6c-0.42-1.102-1.212-2.022-2.24-2.6
				c-1.05-0.716-2.289-1.106-3.56-1.12c-2.28-0.074-4.496,0.76-6.16,2.32c-1.68,1.597-2.585,3.844-2.48,6.16
				c0.136,2.515,0.776,4.977,1.88,7.24c1.539,3.24,3.607,6.2,6.12,8.76c2.88,3.086,6.33,5.585,10.16,7.36
				c4.461,1.955,9.291,2.923,14.16,2.84c4.832,0.051,9.633-0.789,14.16-2.48c4.107-1.529,7.872-3.854,11.08-6.84
				c3.024-2.794,5.434-6.186,7.08-9.96c1.582-3.649,2.399-7.583,2.4-11.56c0.034-3.179-0.564-6.334-1.76-9.28
				C176.792,236.501,174.997,233.782,172.725,231.491z"/>
			<path d="M240.005,183.411c-1.322-1.748-3.409-2.747-5.6-2.68c-1.516-0.173-3.04,0.258-4.24,1.2c-1.707,2.023-3.31,4.132-4.8,6.32
				c-5.337,7.577-12.677,13.519-21.2,17.16c-2.591,1.117-5.08,2.455-7.44,4c-1.529,1.237-2.327,3.164-2.12,5.12
				c-0.012,1.911,0.753,3.745,2.12,5.08c1.255,1.306,2.989,2.043,4.8,2.04c3.84,0,11.333-4.267,22.48-12.8v60l0.2-0.04
				c-0.226,2.879,0.646,5.737,2.44,8c1.647,1.798,4.003,2.779,6.44,2.68c6.027,0,9.04-4.413,9.04-13.24v-75.4
				C242.281,188.202,241.534,185.579,240.005,183.411z"/>
		</g>
	</g>
</g>
<g>
	<g>
		<path d="M335.605,42.651c-6.352-6.382-14.996-9.955-24-9.92h-13.08v-3.6c0.025-7.451-2.843-14.621-8-20l-0.48-0.52
			c-0.037-0.037-0.074-0.074-0.111-0.111c-11.278-11.216-29.513-11.167-40.729,0.111c-5.426,5.402-8.478,12.743-8.48,20.4v3.6
			h-119.92v-3.6c0.025-7.451-2.843-14.621-8-20l-0.48-0.52c-0.037-0.037-0.074-0.074-0.111-0.111
			C100.937-2.836,82.702-2.787,71.485,8.491c-5.426,5.402-8.478,12.743-8.48,20.4v3.6h-13.08l-0.12-0.08
			c-18.627,0.044-33.716,15.133-33.76,33.76v261.6c0.006,8.715,3.39,17.088,9.44,23.36l0.48,0.52c6.352,6.382,14.996,9.955,24,9.92
			h261.64c8.999,0.045,17.641-3.513,24-9.88c6.382-6.352,9.955-14.996,9.92-24V66.651C345.56,57.646,341.987,49.003,335.605,42.651z
			 M256.725,40.491v-11.68c0.008-3.38,1.361-6.619,3.76-9c0.028-0.028,0.056-0.056,0.085-0.085
			c4.96-4.913,12.963-4.875,17.875,0.085l0.32,0.32c2.191,2.359,3.406,5.461,3.4,8.68v23.36c0.004,0.216,0.003,0.433-0.004,0.649
			c-0.222,6.889-5.987,12.293-12.876,12.071c-6.962-0.088-12.561-5.757-12.56-12.72V40.491z M79.165,52.171v-11.68l0.16-11.68
			c-0.003-3.375,1.335-6.612,3.72-9c0.028-0.028,0.056-0.056,0.085-0.085c4.96-4.913,12.963-4.875,17.875,0.085l0.32,0.32
			c2.191,2.359,3.406,5.461,3.4,8.68v23.36c0.038,0.596,0.031,1.193-0.019,1.788c-0.566,6.603-6.377,11.498-12.981,10.932
			c-0.439,0.021-0.878,0.019-1.317-0.008C83.794,64.477,78.76,58.786,79.165,52.171z M32.365,66.211
			c0.044-9.702,7.898-17.556,17.6-17.6h13.08v3.6c0,7.92,5.56,28.88,29.28,28.88c23.4,0,28.4-20.96,28.4-28.92v-3.6h119.92v3.6
			c0,7.96,4.88,28.92,28.88,28.92c24.88,0,28.88-20.92,28.88-28.92v-3.6h13.04c4.669-0.006,9.146,1.851,12.44,5.16
			c3.305,3.296,5.162,7.772,5.16,12.44v50.2H32.365V66.211z M329.085,327.811c0.006,4.669-1.851,9.146-5.16,12.44
			c-3.294,3.309-7.771,5.166-12.44,5.16H49.965c-4.702-0.062-9.184-2.007-12.44-5.4l-0.36-0.32c-3.071-3.242-4.788-7.534-4.8-12
			v-195.16h296.72V327.811z"/>
	</g>
</g>
<g>
</g>
<g>
</g>
<g>
</g>
<g>
</g>
<g>
</g>
<g>
</g>
<g>
</g>
<g>
</g>
<g>
</g>
<g>
</g>
<g>
</g>
<g>
</g>
<g>
</g>
<g>
</g>
<g>
</g>
</svg>
