<?xml version="1.0" encoding="iso-8859-1"?>
<!-- Generator: Adobe Illustrator 17.1.0, SVG Export Plug-In . SVG Version: 6.00 Build 0)  -->
<!DOCTYPE svg PUBLIC "-//W3C//DTD SVG 1.1//EN" "http://www.w3.org/Graphics/SVG/1.1/DTD/svg11.dtd">
<svg version="1.1" id="Capa_1" xmlns="http://www.w3.org/2000/svg" xmlns:xlink="http://www.w3.org/1999/xlink" x="0px" y="0px"
	 viewBox="0 0 381.669 381.669" style="enable-background:new 0 0 381.669 381.669;" xml:space="preserve">
<g>
	<polygon points="106.615,214.469 0,283.87 106.615,353.271 106.615,313.207 211.979,313.207 211.979,254.534 106.615,254.534 	"/>
	<path d="M302.485,218.295c-36.158,0-65.575,29.417-65.575,65.575s29.417,65.575,65.575,65.575s65.575-29.417,65.575-65.575
		S338.643,218.295,302.485,218.295z"/>
	<polygon points="275.054,167.2 381.669,97.799 275.054,28.398 275.054,68.462 169.69,68.462 169.69,127.135 275.054,127.135 	"/>
	<path d="M79.184,163.374c36.158,0,65.575-29.417,65.575-65.575s-29.417-65.575-65.575-65.575S13.609,61.641,13.609,97.799
		S43.026,163.374,79.184,163.374z"/>
</g>
<g>
</g>
<g>
</g>
<g>
</g>
<g>
</g>
<g>
</g>
<g>
</g>
<g>
</g>
<g>
</g>
<g>
</g>
<g>
</g>
<g>
</g>
<g>
</g>
<g>
</g>
<g>
</g>
<g>
</g>
</svg>
