<?xml version="1.0" encoding="iso-8859-1"?>
<!-- Generator: Adobe Illustrator 17.1.0, SVG Export Plug-In . SVG Version: 6.00 Build 0)  -->
<!DOCTYPE svg PUBLIC "-//W3C//DTD SVG 1.1//EN" "http://www.w3.org/Graphics/SVG/1.1/DTD/svg11.dtd">
<svg version="1.1" id="Capa_1" xmlns="http://www.w3.org/2000/svg" xmlns:xlink="http://www.w3.org/1999/xlink" x="0px" y="0px"
	 viewBox="0 0 414.093 414.093" style="enable-background:new 0 0 414.093 414.093;" xml:space="preserve">
<g>
	<path d="M207.046,116.529c32.127,0,58.265-26.138,58.265-58.265S239.173,0,207.046,0s-58.265,26.138-58.265,58.265
		S174.919,116.529,207.046,116.529z"/>
	<path d="M303.535,54.862v5c0,53.204-43.284,96.488-96.488,96.488s-96.488-43.284-96.488-96.488v-5H47.833v5
		c0,87.791,71.423,159.214,159.214,159.214S366.26,147.653,366.26,59.862v-5H303.535z"/>
	<polygon points="244.566,246.395 169.527,246.395 169.527,287.75 117.506,287.75 207.046,414.093 296.586,287.75 244.566,287.75 	
		"/>
</g>
<g>
</g>
<g>
</g>
<g>
</g>
<g>
</g>
<g>
</g>
<g>
</g>
<g>
</g>
<g>
</g>
<g>
</g>
<g>
</g>
<g>
</g>
<g>
</g>
<g>
</g>
<g>
</g>
<g>
</g>
</svg>
