<?xml version="1.0" ?><!DOCTYPE svg  PUBLIC '-//W3C//DTD SVG 1.1//EN'  'http://www.w3.org/Graphics/SVG/1.1/DTD/svg11.dtd'><svg enable-background="new 0 0 64 64" height="64px" id="Layer_1" version="1.1" viewBox="0 0 64 64" width="64px" xml:space="preserve" xmlns="http://www.w3.org/2000/svg" xmlns:xlink="http://www.w3.org/1999/xlink"><g><path d="M47.964,8.127H16.036c-4.4,0-8,3.6-8,8v20.977c0,4.4,3.6,8,8,8h7.397v10.768l13.333-10.768h11.197c4.4,0,8-3.6,8-8V16.127   C55.964,11.727,52.364,8.127,47.964,8.127z M50.964,37.104c0,1.626-1.374,3-3,3H36.767H35l-1.375,1.11l-5.191,4.193v-0.303v-5h-5   h-7.397c-1.626,0-3-1.374-3-3V16.127c0-1.626,1.374-3,3-3h31.928c1.626,0,3,1.374,3,3V37.104z"/><circle cx="21.743" cy="26.617" r="2.913"/><circle cx="32" cy="26.617" r="2.913"/><circle cx="42.256" cy="26.617" r="2.913"/></g></svg>