<?xml version="1.0" encoding="iso-8859-1"?>
<!-- Generator: Adobe Illustrator 17.1.0, SVG Export Plug-In . SVG Version: 6.00 Build 0)  -->
<!DOCTYPE svg PUBLIC "-//W3C//DTD SVG 1.1//EN" "http://www.w3.org/Graphics/SVG/1.1/DTD/svg11.dtd">
<svg version="1.1" id="Capa_1" xmlns="http://www.w3.org/2000/svg" xmlns:xlink="http://www.w3.org/1999/xlink" x="0px" y="0px"
	 viewBox="0 0 414.092 414.092" style="enable-background:new 0 0 414.092 414.092;" xml:space="preserve">
<g>
	<polygon points="126.342,117.506 0,207.046 126.342,296.586 126.342,244.566 167.697,244.566 167.697,169.527 126.342,169.527 	"/>
	<path d="M355.828,148.781c-32.127,0-58.265,26.138-58.265,58.265s26.138,58.265,58.265,58.265s58.265-26.138,58.265-58.265
		S387.955,148.781,355.828,148.781z"/>
	<path d="M257.742,207.046c0-53.204,43.284-96.488,96.488-96.488h5V47.832h-5c-87.791,0-159.213,71.423-159.213,159.214
		S266.439,366.26,354.23,366.26h5v-62.726h-5C301.026,303.534,257.742,260.25,257.742,207.046z"/>
</g>
<g>
</g>
<g>
</g>
<g>
</g>
<g>
</g>
<g>
</g>
<g>
</g>
<g>
</g>
<g>
</g>
<g>
</g>
<g>
</g>
<g>
</g>
<g>
</g>
<g>
</g>
<g>
</g>
<g>
</g>
</svg>
