<?xml version="1.0" encoding="iso-8859-1"?>
<!-- Generator: Adobe Illustrator 17.1.0, SVG Export Plug-In . SVG Version: 6.00 Build 0)  -->
<!DOCTYPE svg PUBLIC "-//W3C//DTD SVG 1.1//EN" "http://www.w3.org/Graphics/SVG/1.1/DTD/svg11.dtd">
<svg version="1.1" id="Capa_1" xmlns="http://www.w3.org/2000/svg" xmlns:xlink="http://www.w3.org/1999/xlink" x="0px" y="0px"
	 viewBox="0 0 443.196 443.196" style="enable-background:new 0 0 443.196 443.196;" xml:space="preserve">
<g>
	<path d="M357.266,145.512c-47.383,0-85.932,38.549-85.932,85.932s38.549,85.932,85.932,85.932
		c47.382,0,85.931-38.549,85.931-85.932S404.647,145.512,357.266,145.512z"/>
	<path d="M180.653,125.821c-42.149,0-82.981,14.605-115.5,41.211l-32.069-32.069L0,285.687l150.725-33.083l-27.031-27.031
		c16.78-11.603,36.351-17.723,56.959-17.723c14.875,0,29.204,3.183,42.59,9.46l4.77,2.237l29.406-76.887l-4.301-1.863
		C230.186,130.86,205.805,125.821,180.653,125.821z"/>
</g>
<g>
</g>
<g>
</g>
<g>
</g>
<g>
</g>
<g>
</g>
<g>
</g>
<g>
</g>
<g>
</g>
<g>
</g>
<g>
</g>
<g>
</g>
<g>
</g>
<g>
</g>
<g>
</g>
<g>
</g>
</svg>
