<?xml version="1.0" encoding="iso-8859-1"?>
<!-- Generator: Adobe Illustrator 17.1.0, SVG Export Plug-In . SVG Version: 6.00 Build 0)  -->
<!DOCTYPE svg PUBLIC "-//W3C//DTD SVG 1.1//EN" "http://www.w3.org/Graphics/SVG/1.1/DTD/svg11.dtd">
<svg version="1.1" id="Capa_1" xmlns="http://www.w3.org/2000/svg" xmlns:xlink="http://www.w3.org/1999/xlink" x="0px" y="0px"
	 viewBox="0 0 427.458 427.458" style="enable-background:new 0 0 427.458 427.458;" xml:space="preserve">
<g>
	<polygon points="427.458,0 320.511,22.611 344.854,46.955 299.063,92.745 334.713,128.395 380.503,82.604 404.846,106.947 	"/>
	<path d="M261.896,109.214c-15.051,0-29.201,5.861-39.843,16.503c-10.643,10.643-16.504,24.792-16.504,39.843
		s5.861,29.201,16.504,39.843c10.642,10.643,24.792,16.503,39.843,16.503s29.201-5.861,39.843-16.503
		c10.643-10.643,16.504-24.792,16.504-39.843s-5.861-29.201-16.504-39.843C291.098,115.075,276.947,109.214,261.896,109.214z"/>
	<path d="M165.561,205.55c-15.051,0-29.201,5.861-39.843,16.503s-16.503,24.792-16.503,39.843s5.861,29.201,16.503,39.843
		s24.792,16.503,39.843,16.503s29.201-5.861,39.843-16.503c10.642-10.643,16.503-24.792,16.503-39.843s-5.861-29.201-16.503-39.843
		C194.761,211.411,180.611,205.55,165.561,205.55z"/>
	<polygon points="92.745,299.063 46.954,344.854 22.611,320.511 0,427.458 106.946,404.847 82.603,380.504 128.394,334.713 	"/>
</g>
<g>
</g>
<g>
</g>
<g>
</g>
<g>
</g>
<g>
</g>
<g>
</g>
<g>
</g>
<g>
</g>
<g>
</g>
<g>
</g>
<g>
</g>
<g>
</g>
<g>
</g>
<g>
</g>
<g>
</g>
</svg>
