<?xml version="1.0" encoding="iso-8859-1"?>
<!-- Generator: Adobe Illustrator 17.1.0, SVG Export Plug-In . SVG Version: 6.00 Build 0)  -->
<!DOCTYPE svg PUBLIC "-//W3C//DTD SVG 1.1//EN" "http://www.w3.org/Graphics/SVG/1.1/DTD/svg11.dtd">
<svg version="1.1" id="Capa_1" xmlns="http://www.w3.org/2000/svg" xmlns:xlink="http://www.w3.org/1999/xlink" x="0px" y="0px"
	 viewBox="0 0 414.093 414.093" style="enable-background:new 0 0 414.093 414.093;" xml:space="preserve">
<g>
	<path d="M207.046,297.563c-32.127,0-58.264,26.138-58.264,58.265s26.137,58.265,58.264,58.265s58.265-26.138,58.265-58.265
		S239.173,297.563,207.046,297.563z"/>
	<path d="M207.046,195.017c-87.791,0-159.214,71.423-159.214,159.214v5h62.726v-5c0-53.204,43.285-96.488,96.488-96.488
		c53.204,0,96.488,43.284,96.488,96.488v5h62.726v-5C366.26,266.439,294.837,195.017,207.046,195.017z"/>
	<polygon points="169.527,167.698 244.566,167.698 244.566,126.343 296.586,126.343 207.046,0 117.506,126.343 169.527,126.343 	"/>
</g>
<g>
</g>
<g>
</g>
<g>
</g>
<g>
</g>
<g>
</g>
<g>
</g>
<g>
</g>
<g>
</g>
<g>
</g>
<g>
</g>
<g>
</g>
<g>
</g>
<g>
</g>
<g>
</g>
<g>
</g>
</svg>
