<?xml version="1.0" encoding="iso-8859-1"?>
<!-- Generator: Adobe Illustrator 19.0.0, SVG Export Plug-In . SVG Version: 6.00 Build 0)  -->
<svg version="1.1" id="Layer_1" xmlns="http://www.w3.org/2000/svg" xmlns:xlink="http://www.w3.org/1999/xlink" x="0px" y="0px"
	 viewBox="0 0 511.999 511.999" style="enable-background:new 0 0 511.999 511.999;" xml:space="preserve">
<g>
	<g>
		<path d="M307.729,245.771c-3.118,2.414-7.018,3.864-11.265,3.864c-10.182,0-18.436-8.254-18.436-18.436
			c0-7.356,4.319-13.687,10.55-16.646c-8.97-7.059-20.277-11.283-32.576-11.283c-29.123,0-52.731,23.608-52.731,52.729
			c0,29.122,23.608,52.729,52.729,52.729s52.728-23.608,52.728-52.729C308.729,252.499,308.379,249.082,307.729,245.771z"/>
	</g>
</g>
<g>
	<g>
		<path d="M502.069,244.83c-1.122-1.262-27.961-31.232-71.356-61.418c-58.12-40.428-118.534-61.798-174.712-61.798
			s-116.594,21.37-174.713,61.798c-43.394,30.186-70.234,60.156-71.356,61.418L0,255.999l9.931,11.17
			c1.122,1.262,27.961,31.232,71.356,61.418c58.12,40.428,118.534,61.798,174.712,61.798s116.593-21.369,174.712-61.798
			c43.395-30.186,70.234-60.156,71.356-61.418l9.931-11.17L502.069,244.83z M141.12,325.663
			c-15.005-7.822-28.478-16.256-39.961-24.21c-24.82-17.192-44.037-34.57-55.203-45.454c11.167-10.887,30.385-28.265,55.203-45.456
			c11.482-7.953,24.956-16.386,39.961-24.21c-12.372,20.328-19.504,44.179-19.504,69.665S128.748,305.335,141.12,325.663z
			 M258.859,356.721c-0.953,0.013-1.903,0.043-2.859,0.043c-0.956,0-1.906-0.029-2.859-0.043
			c-54.245-1.518-97.906-46.116-97.906-100.722c0-54.605,43.661-99.202,97.906-100.722c0.953-0.013,1.903-0.043,2.859-0.043
			c0.956,0,1.906,0.029,2.859,0.043c54.245,1.518,97.905,46.116,97.905,100.722C356.765,310.605,313.104,355.202,258.859,356.721z
			 M410.84,301.455c-11.482,7.953-24.956,16.386-39.961,24.21c12.372-20.328,19.504-44.179,19.504-69.665
			s-7.132-49.337-19.504-69.665c15.005,7.822,28.478,16.256,39.961,24.21c24.818,17.191,44.034,34.568,55.203,45.456
			C454.874,266.887,435.658,284.264,410.84,301.455z"/>
	</g>
</g>
<g>
	<g>
		<polygon points="360.715,66.562 360.715,100.182 411.818,100.182 411.818,151.284 445.438,151.284 445.438,66.562 		"/>
	</g>
</g>
<g>
	<g>
		<polygon points="411.818,360.714 411.818,411.817 360.715,411.817 360.715,445.437 445.438,445.437 445.438,360.714 		"/>
	</g>
</g>
<g>
	<g>
		<polygon points="66.563,66.562 66.563,151.284 100.183,151.284 100.183,100.182 151.285,100.182 151.285,66.562 		"/>
	</g>
</g>
<g>
	<g>
		<polygon points="100.183,411.817 100.183,360.714 66.563,360.714 66.563,445.437 151.285,445.437 151.285,411.817 		"/>
	</g>
</g>
<g>
</g>
<g>
</g>
<g>
</g>
<g>
</g>
<g>
</g>
<g>
</g>
<g>
</g>
<g>
</g>
<g>
</g>
<g>
</g>
<g>
</g>
<g>
</g>
<g>
</g>
<g>
</g>
<g>
</g>
</svg>
