<?xml version="1.0" encoding="UTF-8"?>
<svg xmlns="http://www.w3.org/2000/svg" xmlns:xlink="http://www.w3.org/1999/xlink" viewBox="0 0 26 26" version="1.1" width="52px" height="52px">
<g id="surface1">
<path style=" " d="M 14.1875 4.59375 C 13.289063 4.59375 12.605469 4.792969 11.90625 5.09375 C 11.207031 5.394531 10.398438 6.09375 10 6.59375 C 9.300781 7.492188 9.398438 7.511719 9 7.3125 C 8.101563 7.011719 6.992188 6.886719 6.09375 7.1875 C 4.394531 7.6875 3.195313 9.386719 3.09375 11.1875 C 3.09375 11.488281 3.101563 11.8125 3 11.8125 C 3 11.914063 2.800781 12 2.5 12 C 1.5 12.300781 0.585938 12.90625 0.1875 13.90625 C -0.0117188 14.304688 0 14.511719 0 15.3125 C 0 16.210938 0.0117188 16.3125 0.3125 16.8125 C 0.8125 17.710938 1.695313 18.511719 2.59375 18.8125 C 2.894531 18.914063 5.304688 18.914063 5.40625 18.8125 C 5.40625 18.8125 5.414063 18.605469 5.3125 18.40625 C 5.113281 17.90625 4.90625 17.105469 4.90625 16.40625 C 4.90625 14.507813 6 13.105469 8 12.40625 C 8.601563 12.207031 8.8125 12.105469 8.8125 11.90625 C 8.8125 11.605469 9.292969 10.59375 9.59375 10.09375 C 10.09375 9.292969 10.792969 8.710938 11.59375 8.3125 C 13.695313 7.3125 16.1875 7.59375 17.6875 9.09375 L 18.1875 9.59375 L 18.8125 9.40625 C 19.113281 9.304688 19.492188 9.1875 19.59375 9.1875 C 19.792969 9.386719 19.792969 9 19.59375 8.5 C 18.792969 6.199219 16.6875 4.59375 14.1875 4.59375 Z M 14.09375 9 C 13.09375 9 12.613281 9.101563 11.8125 9.5 C 11.011719 9.898438 10.210938 10.894531 9.8125 12.09375 C 9.710938 12.394531 9.59375 12.710938 9.59375 12.8125 C 9.59375 13.113281 9.414063 13.304688 8.8125 13.40625 C 7.511719 13.707031 6.585938 14.414063 6.1875 15.3125 C 5.988281 15.613281 6 15.898438 6 16.5 C 6 18.300781 6.90625 19.605469 8.40625 19.90625 C 8.804688 20.007813 10.695313 20 16.59375 20 L 24.3125 20 L 24.59375 19.8125 C 25.292969 19.414063 25.804688 18.59375 25.90625 17.59375 C 26.105469 16.09375 25.492188 15.09375 24.09375 14.59375 L 23.59375 14.40625 L 23.5 13.6875 C 23.300781 11.289063 20.90625 9.886719 18.40625 10.6875 L 17.90625 11 L 17.3125 10.40625 C 16.3125 9.304688 15.492188 9 14.09375 9 Z "/>
</g>
</svg>
