<?xml version="1.0" encoding="iso-8859-1"?>
<!-- Generator: Adobe Illustrator 16.0.0, SVG Export Plug-In . SVG Version: 6.00 Build 0)  -->
<!DOCTYPE svg PUBLIC "-//W3C//DTD SVG 1.1//EN" "http://www.w3.org/Graphics/SVG/1.1/DTD/svg11.dtd">
<svg version="1.1" id="Capa_1" xmlns="http://www.w3.org/2000/svg" xmlns:xlink="http://www.w3.org/1999/xlink" x="0px" y="0px"
	 width="687.564px" height="687.563px" viewBox="0 0 687.564 687.563" style="enable-background:new 0 0 687.564 687.563;"
	 xml:space="preserve">
<g>
	<g>
		<g>
			<g>
				<path d="M634.047,373.351c-8.689,0-15.731-7.042-15.731-15.731c0-150.144-122.151-272.294-272.3-272.294
					c-58.955,0-115.059,18.521-162.239,53.573c-6.966,5.192-16.828,3.731-22.007-3.248c-5.179-6.973-3.726-16.834,3.248-22.014
					c52.648-39.105,115.234-59.779,181-59.779c167.492,0,303.766,136.261,303.766,303.761
					C649.781,366.303,642.739,373.351,634.047,373.351z"/>
				<path d="M281.636,197.343c-1.832,0-3.682-0.321-5.5-1.001l-129.728-48.407l28.741-135.461
					c1.8-8.502,10.151-13.934,18.653-12.127c8.502,1.8,13.927,10.151,12.121,18.653l-23.109,108.935l104.322,38.931
					c8.137,3.032,12.278,12.096,9.238,20.238C294.014,193.435,288.011,197.343,281.636,197.343z"/>
			</g>
			<g>
				<path d="M341.553,633.7c-167.5,0-303.772-136.267-303.772-303.761c0-8.69,7.042-15.732,15.733-15.732
					s15.733,7.042,15.733,15.732c0,150.138,122.157,272.295,272.307,272.295c58.954,0,115.052-18.521,162.231-53.567
					c6.975-5.18,16.828-3.732,22.008,3.253c5.18,6.974,3.727,16.828-3.247,22.008C469.903,613.027,407.31,633.7,341.553,633.7z"/>
				<path d="M497.045,687.563c-1.083,0-2.178-0.118-3.284-0.353c-8.503-1.8-13.928-10.15-12.121-18.652l23.114-108.94
					l-104.329-38.93c-8.137-3.033-12.276-12.097-9.237-20.239c3.033-8.145,12.083-12.311,20.239-9.238l129.733,48.4l-28.741,135.46
					C510.852,682.491,504.32,687.563,497.045,687.563z"/>
			</g>
		</g>
	</g>
</g>
<g>
</g>
<g>
</g>
<g>
</g>
<g>
</g>
<g>
</g>
<g>
</g>
<g>
</g>
<g>
</g>
<g>
</g>
<g>
</g>
<g>
</g>
<g>
</g>
<g>
</g>
<g>
</g>
<g>
</g>
</svg>
