<?xml version="1.0" encoding="iso-8859-1"?>
<!-- Generator: Adobe Illustrator 17.1.0, SVG Export Plug-In . SVG Version: 6.00 Build 0)  -->
<!DOCTYPE svg PUBLIC "-//W3C//DTD SVG 1.1//EN" "http://www.w3.org/Graphics/SVG/1.1/DTD/svg11.dtd">
<svg version="1.1" id="Capa_1" xmlns="http://www.w3.org/2000/svg" xmlns:xlink="http://www.w3.org/1999/xlink" x="0px" y="0px"
	 viewBox="0 0 443.196 443.196" style="enable-background:new 0 0 443.196 443.196;" xml:space="preserve">
<g>
	<path d="M443.196,285.687l-33.084-150.725l-32.069,32.069c-32.519-26.606-73.351-41.211-115.5-41.211
		c-25.151,0-49.532,5.039-72.466,14.977l-4.301,1.863l29.406,76.887l4.77-2.237c13.387-6.277,27.716-9.46,42.591-9.46
		c20.608,0,40.179,6.12,56.959,17.723l-27.031,27.031L443.196,285.687z"/>
	<path d="M85.931,145.512C38.548,145.512,0,184.061,0,231.444s38.548,85.932,85.931,85.932c47.382,0,85.931-38.549,85.931-85.932
		S133.313,145.512,85.931,145.512z"/>
</g>
<g>
</g>
<g>
</g>
<g>
</g>
<g>
</g>
<g>
</g>
<g>
</g>
<g>
</g>
<g>
</g>
<g>
</g>
<g>
</g>
<g>
</g>
<g>
</g>
<g>
</g>
<g>
</g>
<g>
</g>
</svg>
