<svg height="512pt" viewBox="0 -46 512 512" width="512pt" xmlns="http://www.w3.org/2000/svg"><path d="m467 330c-6.988281 0-13.609375 1.601562-19.515625 4.457031l-30.824219-30.191406c2.777344-5.84375 4.339844-12.375 4.339844-19.265625 0-19.554688-12.539062-36.226562-30-42.421875v-65.15625c17.460938-6.195313 30-22.867187 30-42.421875 0-6.890625-1.5625-13.421875-4.339844-19.261719l30.824219-30.191406c5.90625 2.851563 12.527344 4.453125 19.515625 4.453125 24.8125 0 45-20.1875 45-45s-20.1875-45-45-45-45 20.1875-45 45c0 6.890625 1.5625 13.421875 4.339844 19.261719l-30.824219 30.191406c-5.90625-2.851563-12.527344-4.453125-19.515625-4.453125-12.109375 0-23.109375 4.816406-31.207031 12.625l-44.148438-22.074219c3.34375-27.015625-17.800781-50.550781-44.644531-50.550781-26.820312 0-47.988281 23.511719-44.644531 50.550781l-44.148438 22.074219c-8.097656-7.808594-19.097656-12.625-31.207031-12.625-6.988281 0-13.609375 1.601562-19.515625 4.453125l-30.824219-30.191406c2.777344-5.839844 4.339844-12.371094 4.339844-19.261719 0-24.8125-20.1875-45-45-45s-45 20.1875-45 45 20.1875 45 45 45c6.988281 0 13.609375-1.601562 19.515625-4.453125l30.824219 30.191406c-2.777344 5.839844-4.339844 12.371094-4.339844 19.261719 0 19.554688 12.539062 36.226562 30 42.421875v65.160156c-17.460938 6.191407-30 22.863281-30 42.417969 0 6.890625 1.5625 13.421875 4.339844 19.265625l-30.824219 30.191406c-5.90625-2.855469-12.527344-4.457031-19.515625-4.457031-24.8125 0-45 20.1875-45 45s20.1875 45 45 45 45-20.1875 45-45c0-6.890625-1.5625-13.421875-4.339844-19.261719l30.824219-30.191406c5.90625 2.851563 12.527344 4.453125 19.515625 4.453125 12.109375 0 23.109375-4.816406 31.207031-12.625l44.148438 22.074219c-.226563 1.820312-.355469 3.667969-.355469 5.550781 0 24.8125 20.1875 45 45 45 26.808594 0 47.988281-23.503906 44.644531-50.550781l44.148438-22.074219c8.097656 7.808594 19.097656 12.625 31.207031 12.625 6.988281 0 13.609375-1.601562 19.515625-4.457031l30.824219 30.191406c-2.777344 5.84375-4.339844 12.375-4.339844 19.265625 0 24.8125 20.1875 45 45 45s45-20.1875 45-45-20.1875-45-45-45zm-135.644531-39.449219-44.148438 22.074219c-8.097656-7.808594-19.097656-12.625-31.207031-12.625s-23.109375 4.816406-31.207031 12.625l-44.148438-22.074219c.226563-1.820312.355469-3.667969.355469-5.550781 0-19.554688-12.539062-36.226562-30-42.421875v-65.15625c19.316406-6.851563 32.316406-26.367187 29.644531-47.972656l44.148438-22.074219c8.097656 7.808594 19.097656 12.625 31.207031 12.625s23.109375-4.816406 31.207031-12.625l44.148438 22.074219c-2.667969 21.566406 10.289062 41.105469 29.644531 47.972656v65.160156c-19.296875 6.84375-32.320312 26.34375-29.644531 47.96875zm135.644531-260.550781c8.269531 0 15 6.730469 15 15s-6.730469 15-15 15-15-6.730469-15-15 6.730469-15 15-15zm-91 90c8.269531 0 15 6.730469 15 15s-6.730469 15-15 15-15-6.730469-15-15 6.730469-15 15-15zm-120-60c8.269531 0 15 6.730469 15 15s-6.730469 15-15 15-15-6.730469-15-15 6.730469-15 15-15zm-120 60c8.269531 0 15 6.730469 15 15s-6.730469 15-15 15-15-6.730469-15-15 6.730469-15 15-15zm-91-60c-8.269531 0-15-6.730469-15-15s6.730469-15 15-15 15 6.730469 15 15-6.730469 15-15 15zm0 330c-8.269531 0-15-6.730469-15-15s6.730469-15 15-15 15 6.730469 15 15-6.730469 15-15 15zm91-90c-8.269531 0-15-6.730469-15-15s6.730469-15 15-15 15 6.730469 15 15-6.730469 15-15 15zm120 60c-8.269531 0-15-6.730469-15-15s6.730469-15 15-15 15 6.730469 15 15-6.730469 15-15 15zm120-60c-8.269531 0-15-6.730469-15-15s6.730469-15 15-15 15 6.730469 15 15-6.730469 15-15 15zm91 90c-8.269531 0-15-6.730469-15-15s6.730469-15 15-15 15 6.730469 15 15-6.730469 15-15 15zm0 0"/></svg>